Nochnoy.dozor.2004.1080p.BluRay.DTS.x264-CtrlHD

Night Watch
 
http://www.imdb.com/title/tt0403358/

Director: Timur Bekmambetov

Release Date: 7 October 2005

Genre: Action , Fantasy

Plot:
A fantasy-thriller set in present-day Moscow where the respective forces that control daytime and nighttime do battle

Cast:
Konstantin Khabenskiy	 ...	Anton Gorodetsky
Vladimir Menshov	 ...	Geser
Valeriy Zolotukhin	 ...	Kostya's Father
Mariya Poroshina	 ...	Svetlana
Galina Tyunina	 ...	Olga, the sorceress
Yuriy Kutsenko	 ...	Ignat (as Gosha Kutsenko)
Aleksey Chadov	 ...	Kostya (Anton's young vampire neighbor)
Zhanna Friske	 ...	Alice Donnikova
Ilya Lagutenko	 ...	Andrei
Viktor Verzhbitskiy	 ...	Zavulon
Rimma Markova	 ...	Darya Schultz, the witch
Mariya Mironova	 ...	Irina, Yegor's mother
Aleksey Maklakov	 ...	Simeon
Aleksandr Samoylenko	 ...	Ilya (Bear), mage-transformer
Dmitriy Martynov	 ...	Yegor (as Dmitri Martynov)

Country: Russia

Language: Russian

Runtime: 114 min




General
Complete name                    : Nochnoy.dozor.2004.1080p.BluRay.DTS.x264-CtrlHDNochnoy.dozor.2004.1080p.BluRay.DTS.x264-CtrlHD.mkv
Format                           : Matroska
File size                        : 7.95 GiB
Duration                         : 1h 54mn
Overall bit rate                 : 9 947 Kbps
Encoded date                     : UTC 2008-08-16 05:47:42
Writing application              : mkvmerge v2.2.0 ('Turn It On Again') built on Mar  4 2008 12:58:26
Writing library                  : libebml v0.7.7 + libmatroska v0.8.1

Video
ID                               : 1
Format                           : AVC
Format/Info                      : Advanced Video Codec
Format profile                   : High@L5.0
Format settings, CABAC           : Yes
Format settings, ReFrames        : 5 frames
Muxing mode                      : Container profile=Unknown@5.0
Codec ID                         : V_MPEG4/ISO/AVC
Duration                         : 1h 54mn
Bit rate                         : 9 175 Kbps
Width                            : 1 920 pixels
Height                           : 1 040 pixels
Display aspect ratio             : 16:9
Frame rate                       : 23.976 fps
Resolution                       : 8 bits
Colorimetry                      : 4:2:0
Scan type                        : Progressive
Bits/(Pixel*Frame)               : 0.192
Stream size                      : 7.19 GiB (90%)
Writing library                  : x264 core 60 r930M 91d865c
Encoding settings                : cabac=1 / ref=5 / deblock=1:-3:-3 / analyse=0x3:0x133 / me=umh / subme=7 / psy_rd=0.8 / brdo=1 / mixed_ref=1 / me_range=26 / chroma_me=1 / trellis=0 / 8x8dct=1 / cqm=2 / deadzone=12,8 / chroma_qp_offset=-2 / threads=6 / nr=0 / decimate=1 / mbaff=0 / bframes=3 / b_pyramid=1 / b_adapt=1 / b_bias=0 / direct=1 / wpredb=1 / bime=1 / keyint=250 / keyint_min=25 / scenecut=40(pre) / rc=2pass / bitrate=9175 / ratetol=1.0 / rceq='blurCplx^(1-qComp)' / qcomp=1.00 / qpmin=10 / qpmax=51 / qpstep=4 / cplxblur=20.0 / qblur=0.5 / ip_ratio=1.40 / pb_ratio=1.30 / aq=2:0.60
Language                         : English

Audio
ID                               : 2
Format                           : DTS
Format/Info                      : Digital Theater Systems
Codec ID                         : A_DTS
Duration                         : 1h 54mn
Bit rate mode                    : Constant
Bit rate                         : 755 Kbps
Channel(s)                       : 6 channels
Channel positions                : Front: L C R, Side: L R, LFE
Sampling rate                    : 48.0 KHz
Resolution                       : 24 bits
Stream size                      : 617 MiB (8%)
Language                         : Russian

Text
ID                               : 3
Format                           : UTF-8
Codec ID                         : S_TEXT/UTF8
Codec ID/Info                    : UTF-8 Plain Text
Language                         : English